<?xml version="1.0" standalone="yes"?>
<svg xmlns="http://www.w3.org/2000/svg" width="500" height="500">
<path style="fill:#ffffff; stroke:none;" d="M0 0L0 500L500 500L500 0L0 0z"/>
<path style="fill:#cf9eaa; stroke:none;" d="M90 130L90 133L92 132L92 131L90 130z"/>
<path style="fill:#dc234f; stroke:none;" d="M91 132C92.3618 142.545 97.247 154.375 94.0571 165C91.7908 172.549 84.1344 178.086 80.3125 185C72.4954 199.141 69.2634 213.992 68 230L69 230C73.1453 217.747 77.2652 202.732 86 193C90.8453 213.351 81.0949 237.16 77 257L78 257C86.9672 235.433 101.953 208.602 103.391 185C104.065 173.947 100.324 161.556 97.4236 151C95.6925 144.699 94.5092 137.577 91 132z"/>
<path style="fill:#cf9eaa; stroke:none;" d="M92.3333 133.667L92.6667 134.333L92.3333 133.667M91.3333 135.667L91.6667 136.333L91.3333 135.667M93.3333 136.667L93.6667 137.333L93.3333 136.667M92.3333 140.667L92.6667 141.333L92.3333 140.667M94 140L95 141L94 140M95 143L96 144L95 143M93 144L93 148L94 148L93 144M96.3333 146.667L96.6667 147.333L96.3333 146.667M97.3333 150.667L97.6667 151.333L97.3333 150.667M94 152L94 164L95 164L94 152M98.3333 153.667L98.6667 154.333L98.3333 153.667M79 156L80 157L79 156z"/>
<path style="fill:#dc234f; stroke:none;" d="M80.108 156.758C71.9568 159.96 76.1005 174.353 84.956 171.218C93.7757 168.095 89.0648 153.239 80.108 156.758z"/>
<path style="fill:#cf9eaa; stroke:none;" d="M85 156L86 157L85 156M87 157L88 158L87 157M99 157L99 160L100 160L99 157M88 158L89 159L88 158M76 159L77 160L76 159M89 160L90 161L89 160M75.3333 161.667L75.6667 162.333L75.3333 161.667M90 162L90 166L91 166L90 162M100.333 162.667L100.667 163.333L100.333 162.667M75.3333 165.667L75.6667 166.333L75.3333 165.667M93.3333 166.667L93.6667 167.333L93.3333 166.667M101 166L101 169L102 169L101 166M89 167L90 168L89 167M76 168L77 169L76 168M88 169L89 170L88 169M92 169L93 170L92 169M385 188L386 188L386 170L392 170L392 188C393.676 184.005 393.934 176.364 392.682 172.148C391.851 169.349 388.033 168.09 386.028 170.604C383.206 174.142 385 183.652 385 188M87 170L88 171L87 170M91 170L92 171L91 170z"/>
<path style="fill:#040404; stroke:none;" d="M386 170L386 188L392 188L392 170L386 170z"/>
<path style="fill:#cf9eaa; stroke:none;" d="M79.6667 171.333L80.3333 171.667L79.6667 171.333M85 171L86 172L85 171M90 171L91 172L90 171M102 171L102 175L103 175L102 171M88 173L89 174L88 173z"/>
<path style="fill:#040404; stroke:none;" d="M237 173L237 184L232 184L232 190L237 190C237 197.654 234.608 210.262 238.858 216.956C241.405 220.967 255.721 225.766 256.454 217.834C256.924 212.75 248.376 215.506 246.179 211.848C242.989 206.536 245 196.032 245 190L257 190L257 184L245 184L245 173L237 173z"/>
<path style="fill:#cf9eaa; stroke:none;" d="M245 173C245.001 183.055 247.258 184 257 184L257 183L246 183L245 173M87 174L88 175L87 174M85 177L86 178L85 177M84 178L85 179L84 178M103 178L103 183L104 183L103 178M82 181L83 182L82 181M81 182L82 183L81 182z"/>
<path style="fill:#5c5c5c; stroke:none;" d="M142 182L142 183L150 183L150 190L153 187L151 182L142 182z"/>
<path style="fill:#cf9eaa; stroke:none;" d="M159 182L160 183L159 182z"/>
<path style="fill:#5c5c5c; stroke:none;" d="M160.667 182.333L161.333 182.667L160.667 182.333z"/>
<path style="fill:#040404; stroke:none;" d="M150 190L150 183L142 183L142 222L150 222C150 214.086 148.084 203.137 152.279 196.043C156.52 188.87 166.729 188.148 170.682 196.015C174.147 202.911 172 214.439 172 222L180 222C180 212.472 182.089 200.046 178.736 191.001C173.646 177.267 157.574 182.092 150 190z"/>
<path style="fill:#5c5c5c; stroke:none;" d="M168.667 182.333L169.333 182.667L168.667 182.333z"/>
<path style="fill:#cf9eaa; stroke:none;" d="M170 182L171 183L170 182M200 182L201 183L200 182z"/>
<path style="fill:#5c5c5c; stroke:none;" d="M201 182L201 183L204 183L201 182z"/>
<path style="fill:#040404; stroke:none;" d="M191 187C196.708 197.076 211.714 181.626 216 198C209.025 198 198.952 196.908 193.109 201.514C186.384 206.815 188.224 217.763 196.004 220.852C203.008 223.633 210.202 221.092 216 217L216 222L224 222C220.87 205.14 228.763 176.918 201 183.015C197.369 183.813 194.216 185.172 191 187z"/>
<path style="fill:#5c5c5c; stroke:none;" d="M210 182L210 183L213 183L210 182z"/>
<path style="fill:#cf9eaa; stroke:none;" d="M213 182L214 183L213 182z"/>
<path style="fill:#5c5c5c; stroke:none;" d="M264 182L264 210L265 210L265 183L273 183L264 182M293 182L293 183L301 183L301 222L302 193L300.972 183.603L293 182z"/>
<path style="fill:#cf9eaa; stroke:none;" d="M301 182L302 183L301 182M314 182L315 183L314 182z"/>
<path style="fill:#5c5c5c; stroke:none;" d="M314 222L315 222L315 183L323 183C320.439 181.928 316.147 181.181 314.603 184.318C310.272 193.12 314 212.166 314 222z"/>
<path style="fill:#cf9eaa; stroke:none;" d="M331 182L332 183L331 182z"/>
<path style="fill:#5c5c5c; stroke:none;" d="M332.667 182.333L333.333 182.667L332.667 182.333z"/>
<path style="fill:#040404; stroke:none;" d="M324 190L323 190L323 183L315 183L315 222L323 222C323 209.934 319.547 191.696 336 190L336 182C330.515 183.151 326.513 184.742 324 190z"/>
<path style="fill:#5c5c5c; stroke:none;" d="M336 182L336 190L337 190L336 182z"/>
<path style="fill:#cf9eaa; stroke:none;" d="M354 182L355 183L354 182z"/>
<path style="fill:#5c5c5c; stroke:none;" d="M355 182L355 183L358 183L355 182z"/>
<path style="fill:#040404; stroke:none;" d="M376 216L376 215L373 211C363.402 216.029 352.839 217.889 349 205C355.311 205 372.447 208.039 377.382 203.972C381.728 200.391 375.983 189.061 372.892 186.394C365.582 180.086 351.883 181.182 345.39 188.213C326.937 208.199 356.537 231.94 376 216z"/>
<path style="fill:#5c5c5c; stroke:none;" d="M363 182L363 183L366 183L363 182z"/>
<path style="fill:#cf9eaa; stroke:none;" d="M366 182L367 183L366 182M409 182L410 183L409 182z"/>
<path style="fill:#5c5c5c; stroke:none;" d="M410.667 182.333L411.333 182.667L410.667 182.333z"/>
<path style="fill:#040404; stroke:none;" d="M401 211C396.425 224.739 423.978 225.526 428.258 214.957C432.261 205.071 423.299 201.184 416 198.289C413.537 197.312 408.128 194.846 409.921 191.289C412.633 185.912 422.275 190.566 426 192L428 185C419.044 182.136 390.38 182.699 402.894 199.786C406.566 204.802 419.164 204.183 420.079 210.999C421.383 220.723 403.964 212.551 401 211z"/>
<path style="fill:#5c5c5c; stroke:none;" d="M419.667 182.333L420.333 182.667L419.667 182.333z"/>
<path style="fill:#cf9eaa; stroke:none;" d="M421 182L422 183L421 182z"/>
<path style="fill:#5c5c5c; stroke:none;" d="M157 183L158 184L157 183M172 183L173 184L172 183z"/>
<path style="fill:#cf9eaa; stroke:none;" d="M197 183L198 184L197 183z"/>
<path style="fill:#5c5c5c; stroke:none;" d="M198 183L199 184L198 183M215 183L216 184L215 183z"/>
<path style="fill:#cf9eaa; stroke:none;" d="M216 183L217 184L216 183M232 183L232 184L237 184L232 183z"/>
<path style="fill:#5c5c5c; stroke:none;" d="M245 183L246 184L245 183z"/>
<path style="fill:#040404; stroke:none;" d="M265 183C265 192.129 262.898 204.259 265.653 212.999C269.903 226.485 285.48 222.114 293 215L293 222L301 222L301 183L293 183C293 190.377 295.007 201.274 291.543 207.985C287.986 214.876 278.109 216.509 274.179 208.981C270.717 202.347 273 190.352 273 183L265 183z"/>
<path style="fill:#5c5c5c; stroke:none;" d="M329 183L330 184L329 183z"/>
<path style="fill:#cf9eaa; stroke:none;" d="M351 183L352 184L351 183z"/>
<path style="fill:#5c5c5c; stroke:none;" d="M352 183L353 184L352 183M368 183L369 184L368 183z"/>
<path style="fill:#cf9eaa; stroke:none;" d="M369 183L370 184L369 183M406 183L407 184L406 183z"/>
<path style="fill:#5c5c5c; stroke:none;" d="M407 183L408 184L407 183M423 183L424 184L423 183z"/>
<path style="fill:#cf9eaa; stroke:none;" d="M424 183L425 184L424 183M80 184L81 185L80 184M106 187L107 187L124 185C119.327 183.039 108.974 182.412 106 187z"/>
<path style="fill:#5c5c5c; stroke:none;" d="M155 184L156 185L155 184z"/>
<path style="fill:#cf9eaa; stroke:none;" d="M174 184L175 185L174 184z"/>
<path style="fill:#5c5c5c; stroke:none;" d="M195 184L196 185L195 184M217 184L218 185L217 184M231 184L231 190L232 190L231 184z"/>
<path style="fill:#cf9eaa; stroke:none;" d="M327 184L328 185L327 184M349 184L350 185L349 184z"/>
<path style="fill:#5c5c5c; stroke:none;" d="M350 184L351 185L350 184M370 184L371 185L370 184M405 184L406 185L405 184z"/>
<path style="fill:#cf9eaa; stroke:none;" d="M426 184L427 185L426 184M103 185L103 188L104 188L103 185z"/>
<path style="fill:#dc234f; stroke:none;" d="M105 194L114 191L111 204L126 186C116.704 183.252 106.483 183.059 105 194z"/>
<path style="fill:#cf9eaa; stroke:none;" d="M125 185L126 186L125 185z"/>
<path style="fill:#5c5c5c; stroke:none;" d="M154 185L155 186L154 185M175 185L176 186L175 185M193 185L194 186L193 185z"/>
<path style="fill:#cf9eaa; stroke:none;" d="M219 185L220 186L219 185z"/>
<path style="fill:#5c5c5c; stroke:none;" d="M326 185L327 186L326 185M348 185L349 186L348 185z"/>
<path style="fill:#cf9eaa; stroke:none;" d="M372 185L373 186L372 185M403 185L404 186L403 185M428 185L429 186L428 185M79 186L80 187L79 186z"/>
<path style="fill:#5c5c5c; stroke:none;" d="M176 186L177 187L176 186M191 186L192 187L191 186z"/>
<path style="fill:#cf9eaa; stroke:none;" d="M220 186L221 187L220 186z"/>
<path style="fill:#5c5c5c; stroke:none;" d="M325 186L326 187L325 186M373 186L374 187L373 186z"/>
<path style="fill:#cf9eaa; stroke:none;" d="M402 186L403 187L402 186z"/>
<path style="fill:#5c5c5c; stroke:none;" d="M428 186L429 187L428 186z"/>
<path style="fill:#cf9eaa; stroke:none;" d="M125 187L126 188L125 187M177 187L178 188L177 187M221 187L222 188L221 187M324 187L325 188L324 187M345 187L346 188L345 187M374 187L375 188L374 187M78 188L79 189L78 188z"/>
<path style="fill:#5c5c5c; stroke:none;" d="M191 188L192 189L191 188M221 188L222 189L221 188z"/>
<path style="fill:#cf9eaa; stroke:none;" d="M375 188L376 189L375 188z"/>
<path style="fill:#5c5c5c; stroke:none;" d="M401 188L402 189L401 188M413.667 188.333L414.333 188.667L413.667 188.333M427 188L428 189L427 188z"/>
<path style="fill:#cf9eaa; stroke:none;" d="M105.333 189.667L105.667 190.333L105.333 189.667M124 189L125 190L124 189M178 189L179 190L178 189z"/>
<path style="fill:#5c5c5c; stroke:none;" d="M200.667 189.333L201.333 189.667L200.667 189.333z"/>
<path style="fill:#cf9eaa; stroke:none;" d="M202 189L203 190L202 189M209 189L210 190L209 189z"/>
<path style="fill:#5c5c5c; stroke:none;" d="M210 189L211 190L210 189z"/>
<path style="fill:#cf9eaa; stroke:none;" d="M222 189L223 190L222 189z"/>
<path style="fill:#5c5c5c; stroke:none;" d="M323 189L324 190L323 189M355 189L356 190L355 189z"/>
<path style="fill:#cf9eaa; stroke:none;" d="M356 189L357 190L356 189z"/>
<path style="fill:#ffffff; stroke:none;" d="M349 199L371 199C368.317 185.714 352.556 187.061 349 199z"/>
<path style="fill:#cf9eaa; stroke:none;" d="M363 189L364 190L363 189z"/>
<path style="fill:#5c5c5c; stroke:none;" d="M364 189L365 190L364 189z"/>
<path style="fill:#cf9eaa; stroke:none;" d="M410 189L411 190L410 189M418 189L419 190L418 189z"/>
<path style="fill:#5c5c5c; stroke:none;" d="M419 189L420 190L419 189z"/>
<path style="fill:#cf9eaa; stroke:none;" d="M77 190L78 191L77 190M102.333 190.667L102.667 191.333L102.333 190.667M123 190L124 191L123 190z"/>
<path style="fill:#5c5c5c; stroke:none;" d="M158 190L159 191L158 190z"/>
<path style="fill:#cf9eaa; stroke:none;" d="M159.667 190.333L160.333 190.667L159.667 190.333M164 190L165 191L164 190z"/>
<path style="fill:#5c5c5c; stroke:none;" d="M165 190L166 191L165 190z"/>
<path style="fill:#cf9eaa; stroke:none;" d="M192 190L193 191L192 190z"/>
<path style="fill:#5c5c5c; stroke:none;" d="M198 190L199 191L198 190M212 190L213 191L212 190M222 190L223 191L222 190z"/>
<path style="fill:#cf9eaa; stroke:none;" d="M232 190L232 191L237 191L232 190z"/>
<path style="fill:#5c5c5c; stroke:none;" d="M245 190L246 191L245 190z"/>
<path style="fill:#cf9eaa; stroke:none;" d="M246 190L246 191L257 191L246 190z"/>
<path style="fill:#5c5c5c; stroke:none;" d="M331.667 190.333L332.333 190.667L331.667 190.333z"/>
<path style="fill:#cf9eaa; stroke:none;" d="M333 190L333 191L336 191L333 190z"/>
<path style="fill:#5c5c5c; stroke:none;" d="M343 190L344 191L343 190M353 190L354 191L353 190z"/>
<path style="fill:#cf9eaa; stroke:none;" d="M354 190L355 191L354 190M366 190L367 191L366 190M376 190L377 191L376 190M400 190L401 191L400 190M409 190L410 191L409 190M421 190L422 191L421 190z"/>
<path style="fill:#5c5c5c; stroke:none;" d="M422 190L423 191L422 190M426 190L427 191L426 190z"/>
<path style="fill:#cf9eaa; stroke:none;" d="M113 191L114 192L113 191M122 191L123 192L122 191M156 191L157 192L156 191z"/>
<path style="fill:#5c5c5c; stroke:none;" d="M167 191L168 192L167 191z"/>
<path style="fill:#cf9eaa; stroke:none;" d="M179 191L180 192L179 191z"/>
<path style="fill:#5c5c5c; stroke:none;" d="M193 191L194 192L193 191M196 191L197 192L196 191M213 191L214 192L213 191z"/>
<path style="fill:#cf9eaa; stroke:none;" d="M245 191L245 210L246 210L245 191M329 191L330 192L329 191M342 191L343 192L342 191z"/>
<path style="fill:#5c5c5c; stroke:none;" d="M352 191L353 192L352 191z"/>
<path style="fill:#cf9eaa; stroke:none;" d="M367 191L368 192L367 191z"/>
<path style="fill:#5c5c5c; stroke:none;" d="M400 191L400 196L401 196L400 191M408 191L408 194L409 194L408 191M424 191L425 192L424 191z"/>
<path style="fill:#cf9eaa; stroke:none;" d="M76 192L77 193L76 192M109.667 192.333L110.333 192.667L109.667 192.333M114.333 192.667L114.667 193.333L114.333 192.667z"/>
<path style="fill:#5c5c5c; stroke:none;" d="M154 192L155 193L154 192z"/>
<path style="fill:#cf9eaa; stroke:none;" d="M168 192L169 193L168 192z"/>
<path style="fill:#5c5c5c; stroke:none;" d="M179.333 192.667L179.667 193.333L179.333 192.667M194 192L195 193L194 192M214 192L215 193L214 192z"/>
<path style="fill:#cf9eaa; stroke:none;" d="M223 192L224 193L223 192z"/>
<path style="fill:#5c5c5c; stroke:none;" d="M327 192L328 193L327 192M342 192L343 193L342 192M351 192L352 193L351 192z"/>
<path style="fill:#cf9eaa; stroke:none;" d="M368 192L369 193L368 192M377 192L378 193L377 192M85 193L86 194L85 193M104 193L105 194L104 193M107 193L108 194L107 193M121 193L122 194L121 193z"/>
<path style="fill:#5c5c5c; stroke:none;" d="M153 193L154 194L153 193z"/>
<path style="fill:#cf9eaa; stroke:none;" d="M169 193L170 194L169 193M214 193L215 194L214 193z"/>
<path style="fill:#5c5c5c; stroke:none;" d="M223 193L223 220L224 220L223 193M326 193L327 194L326 193z"/>
<path style="fill:#cf9eaa; stroke:none;" d="M341 193L342 194L341 193z"/>
<path style="fill:#5c5c5c; stroke:none;" d="M350 193L351 194L350 193z"/>
<path style="fill:#cf9eaa; stroke:none;" d="M369 193L370 194L369 193z"/>
<path style="fill:#5c5c5c; stroke:none;" d="M377 193L378 194L377 193z"/>
<path style="fill:#cf9eaa; stroke:none;" d="M75 194L76 195L75 194M84 194L85 195L84 194M86 194L87 195L86 194M101 194L102 195L101 194M105 194L106 195L105 194M120 194L121 195L120 194z"/>
<path style="fill:#5c5c5c; stroke:none;" d="M170 194L171 195L170 194M325 194L326 195L325 194M341 194L342 195L341 194z"/>
<path style="fill:#cf9eaa; stroke:none;" d="M350 194L351 195L350 194z"/>
<path style="fill:#5c5c5c; stroke:none;" d="M370 194L371 195L370 194z"/>
<path style="fill:#cf9eaa; stroke:none;" d="M83 195L84 196L83 195M113.333 195.667L113.667 196.333L113.333 195.667M119 195L120 196L119 195M152 195L153 196L152 195M170 195L171 196L170 195z"/>
<path style="fill:#5c5c5c; stroke:none;" d="M215 195L215 198L216 198L215 195M349 195L350 196L349 195z"/>
<path style="fill:#cf9eaa; stroke:none;" d="M370 195L371 196L370 195M378.333 195.667L378.667 196.333L378.333 195.667M410 195L411 196L410 195M74 196L75 197L74 196M82.3333 196.667L82.6667 197.333L82.3333 196.667M118 196L119 197L118 196z"/>
<path style="fill:#5c5c5c; stroke:none;" d="M151 196L152 197L151 196z"/>
<path style="fill:#cf9eaa; stroke:none;" d="M324 196L325 197L324 196M340.333 196.667L340.667 197.333L340.333 196.667M349 196L350 197L349 196M400 196L401 197L400 196z"/>
<path style="fill:#5c5c5c; stroke:none;" d="M411 196L412 197L411 196z"/>
<path style="fill:#cf9eaa; stroke:none;" d="M100 197L101 198L100 197M117 197L118 198L117 197M151 197L152 198L151 197z"/>
<path style="fill:#5c5c5c; stroke:none;" d="M171 197L171 222L172 222L171 197M378 197L378 200L379 200L378 197M413 197L414 198L413 197z"/>
<path style="fill:#cf9eaa; stroke:none;" d="M414 197L415 198L414 197M73.3333 198.667L73.6667 199.333L73.3333 198.667M81.3333 198.667L81.6667 199.333L81.3333 198.667M112 198L113 199L112 198M116 198L117 199L116 198M198 198L199 199L198 198z"/>
<path style="fill:#5c5c5c; stroke:none;" d="M199 198L199 199L203 199L199 198M323 198L324 199L323 198M340 198L340 201L341 201L340 198M348 198L349 199L348 198M371 198L372 199L371 198M401 198L402 199L401 198M416 198L417 199L416 198z"/>
<path style="fill:#cf9eaa; stroke:none;" d="M417 198L418 199L417 198M99.3333 199.667L99.6667 200.333L99.3333 199.667M195 199L196 200L195 199z"/>
<path style="fill:#5c5c5c; stroke:none;" d="M196 199L197 200L196 199z"/>
<path style="fill:#cf9eaa; stroke:none;" d="M323 199L324 200L323 199z"/>
<path style="fill:#5c5c5c; stroke:none;" d="M402 199L403 200L402 199M419 199L420 200L419 199z"/>
<path style="fill:#cf9eaa; stroke:none;" d="M420 199L421 200L420 199M80 200L81 201L80 200M111.333 200.667L111.667 201.333L111.333 200.667M114 200L115 201L114 200z"/>
<path style="fill:#5c5c5c; stroke:none;" d="M150 200L150 222L151 222L150 200z"/>
<path style="fill:#cf9eaa; stroke:none;" d="M193 200L194 201L193 200z"/>
<path style="fill:#5c5c5c; stroke:none;" d="M422 200L423 201L422 200z"/>
<path style="fill:#cf9eaa; stroke:none;" d="M423 200L424 201L423 200M72.3333 201.667L72.6667 202.333L72.3333 201.667z"/>
<path style="fill:#5c5c5c; stroke:none;" d="M192 201L193 202L192 201M424 201L425 202L424 201z"/>
<path style="fill:#cf9eaa; stroke:none;" d="M79.3333 202.667L79.6667 203.333L79.3333 202.667z"/>
<path style="fill:#5c5c5c; stroke:none;" d="M191 202L192 203L191 202M405 202L406 203L405 202z"/>
<path style="fill:#cf9eaa; stroke:none;" d="M98 203L99 204L98 203M110.333 203.667L110.667 204.333L110.333 203.667z"/>
<path style="fill:#5c5c5c; stroke:none;" d="M190 203L191 204L190 203M407 203L408 204L407 203z"/>
<path style="fill:#cf9eaa; stroke:none;" d="M71.3333 204.667L71.6667 205.333L71.3333 204.667M189 204L190 205L189 204z"/>
<path style="fill:#5c5c5c; stroke:none;" d="M200.667 204.333L201.333 204.667L200.667 204.333z"/>
<path style="fill:#cf9eaa; stroke:none;" d="M202 204L202 205L215 205L202 204z"/>
<path style="fill:#5c5c5c; stroke:none;" d="M215 204L215 209L216 209L215 204M340 204L340 207L341 207L340 204M378 204L379 205L378 204z"/>
<path style="fill:#cf9eaa; stroke:none;" d="M409 204L410 205L409 204z"/>
<path style="fill:#5c5c5c; stroke:none;" d="M410 204L411 205L410 204M427 204L428 205L427 204z"/>
<path style="fill:#cf9eaa; stroke:none;" d="M78 205L79 206L78 205z"/>
<path style="fill:#5c5c5c; stroke:none;" d="M189 205L190 206L189 205M198 205L199 206L198 205z"/>
<path style="fill:#ffffff; stroke:none;" d="M215 205L207 205C183.826 205.048 213.793 226.978 215 205z"/>
<path style="fill:#cf9eaa; stroke:none;" d="M292 205L293 206L292 205M349 205L349 206L379 206L349 205M412 205L413 206L412 205z"/>
<path style="fill:#5c5c5c; stroke:none;" d="M413.667 205.333L414.333 205.667L413.667 205.333z"/>
<path style="fill:#cf9eaa; stroke:none;" d="M428 205L429 206L428 205M97 206L98 207L97 206M197 206L198 207L197 206z"/>
<path style="fill:#5c5c5c; stroke:none;" d="M292 206L293 207L292 206M416 206L417 207L416 206z"/>
<path style="fill:#cf9eaa; stroke:none;" d="M77 207L78 208L77 207M86 207L86 211L87 211L86 207M188 207L189 208L188 207z"/>
<path style="fill:#5c5c5c; stroke:none;" d="M196.333 207.667L196.667 208.333L196.333 207.667z"/>
<path style="fill:#cf9eaa; stroke:none;" d="M273 207L274 208L273 207M340 207L341 208L340 207M349 207L350 208L349 207z"/>
<path style="fill:#5c5c5c; stroke:none;" d="M418 207L419 208L418 207z"/>
<path style="fill:#cf9eaa; stroke:none;" d="M70 208L70 212L71 212L70 208M96.3333 208.667L96.6667 209.333L96.3333 208.667z"/>
<path style="fill:#5c5c5c; stroke:none;" d="M188 208L188 212L189 212L188 208M273 208L274 209L273 208z"/>
<path style="fill:#cf9eaa; stroke:none;" d="M291 208L292 209L291 208M419 208L420 209L419 208M429.333 208.667L429.667 209.333L429.333 208.667M196.333 209.667L196.667 210.333L196.333 209.667z"/>
<path style="fill:#5c5c5c; stroke:none;" d="M341 209L342 210L341 209z"/>
<path style="fill:#cf9eaa; stroke:none;" d="M350 209L351 210L350 209M420 209L421 210L420 209M76 210L77 211L76 210M214 210L215 211L214 210z"/>
<path style="fill:#5c5c5c; stroke:none;" d="M245.333 210.667L245.667 211.333L245.333 210.667z"/>
<path style="fill:#cf9eaa; stroke:none;" d="M264 210L265 211L264 210z"/>
<path style="fill:#5c5c5c; stroke:none;" d="M274 210L275 211L274 210M290 210L291 211L290 210z"/>
<path style="fill:#cf9eaa; stroke:none;" d="M341 210L342 211L341 210z"/>
<path style="fill:#5c5c5c; stroke:none;" d="M429.333 210.667L429.667 211.333L429.333 210.667M196 211L197 212L196 211z"/>
<path style="fill:#cf9eaa; stroke:none;" d="M275 211L276 212L275 211z"/>
<path style="fill:#5c5c5c; stroke:none;" d="M289 211L290 212L289 211M351 211L352 212L351 211M371 211L372 212L371 211z"/>
<path style="fill:#cf9eaa; stroke:none;" d="M402 211L403 212L402 211M75.3333 212.667L75.6667 213.333L75.3333 212.667M95 212L96 213L95 212M188.333 212.667L188.667 213.333L188.333 212.667M276 212L277 213L276 212M287 212L288 213L287 212z"/>
<path style="fill:#5c5c5c; stroke:none;" d="M288 212L289 213L288 212M342 212L343 213L342 212M352 212L353 213L352 212M370 212L371 213L370 212M400 212L401 213L400 212M403 212L404 213L403 212z"/>
<path style="fill:#cf9eaa; stroke:none;" d="M404 212L405 213L404 212M429.333 212.667L429.667 213.333L429.333 212.667z"/>
<path style="fill:#5c5c5c; stroke:none;" d="M197 213L198 214L197 213z"/>
<path style="fill:#cf9eaa; stroke:none;" d="M211 213L212 214L211 213z"/>
<path style="fill:#5c5c5c; stroke:none;" d="M246 213L247 214L246 213z"/>
<path style="fill:#cf9eaa; stroke:none;" d="M253 213L254 214L253 213z"/>
<path style="fill:#5c5c5c; stroke:none;" d="M254.667 213.333L255.333 213.667L254.667 213.333M265 213L266 214L265 213M277 213L278 214L277 213z"/>
<path style="fill:#cf9eaa; stroke:none;" d="M278 213L279 214L278 213M285 213L286 214L285 213z"/>
<path style="fill:#5c5c5c; stroke:none;" d="M286 213L287 214L286 213z"/>
<path style="fill:#cf9eaa; stroke:none;" d="M354 213L355 214L354 213M368 213L369 214L368 213z"/>
<path style="fill:#5c5c5c; stroke:none;" d="M374 213L375 214L374 213M405 213L406 214L405 213z"/>
<path style="fill:#cf9eaa; stroke:none;" d="M406 213L407 214L406 213z"/>
<path style="fill:#5c5c5c; stroke:none;" d="M420 213L421 214L420 213z"/>
<path style="fill:#cf9eaa; stroke:none;" d="M85 214L85 218L86 218L85 214M94.3333 214.667L94.6667 215.333L94.3333 214.667M199 214L200 215L199 214M209 214L210 215L209 214z"/>
<path style="fill:#5c5c5c; stroke:none;" d="M210 214L211 215L210 214M237 214L238 215L237 214M247.667 214.333L248.333 214.667L247.667 214.333z"/>
<path style="fill:#cf9eaa; stroke:none;" d="M249.667 214.333L250.333 214.667L249.667 214.333z"/>
<path style="fill:#5c5c5c; stroke:none;" d="M251 214L252 215L251 214z"/>
<path style="fill:#cf9eaa; stroke:none;" d="M256 214L257 215L256 214M265 214L266 215L265 214z"/>
<path style="fill:#5c5c5c; stroke:none;" d="M281.667 214.333L282.333 214.667L281.667 214.333z"/>
<path style="fill:#cf9eaa; stroke:none;" d="M343 214L344 215L343 214z"/>
<path style="fill:#5c5c5c; stroke:none;" d="M355 214L356 215L355 214z"/>
<path style="fill:#cf9eaa; stroke:none;" d="M356 214L357 215L356 214M365 214L366 215L365 214z"/>
<path style="fill:#5c5c5c; stroke:none;" d="M366 214L367 215L366 214M375 214L376 215L375 214M399 214L400 215L399 214M407.667 214.333L408.333 214.667L407.667 214.333M419 214L420 215L419 214z"/>
<path style="fill:#cf9eaa; stroke:none;" d="M69 215L69 218L70 218L69 215M74 215L75 216L74 215M189 215L190 216L189 215z"/>
<path style="fill:#5c5c5c; stroke:none;" d="M201.667 215.333L202.333 215.667L201.667 215.333z"/>
<path style="fill:#cf9eaa; stroke:none;" d="M203.667 215.333L204.333 215.667L203.667 215.333z"/>
<path style="fill:#5c5c5c; stroke:none;" d="M205 215L205 216L208 216L205 215z"/>
<path style="fill:#cf9eaa; stroke:none;" d="M237 215L238 216L237 215z"/>
<path style="fill:#5c5c5c; stroke:none;" d="M256 215L257 216L256 215M266 215L267 216L266 215z"/>
<path style="fill:#cf9eaa; stroke:none;" d="M292 215L293 216L292 215M344 215L345 216L344 215z"/>
<path style="fill:#5c5c5c; stroke:none;" d="M359 215L359 216L364 216L359 215M376 215L377 216L376 215M411 215L411 216L414 216L411 215z"/>
<path style="fill:#cf9eaa; stroke:none;" d="M414.667 215.333L415.333 215.667L414.667 215.333z"/>
<path style="fill:#5c5c5c; stroke:none;" d="M416.667 215.333L417.333 215.667L416.667 215.333z"/>
<path style="fill:#cf9eaa; stroke:none;" d="M428 215L429 216L428 215z"/>
<path style="fill:#5c5c5c; stroke:none;" d="M291 216L292 217L291 216M345 216L346 217L345 216M375 216L376 217L375 216M398 216L399 217L398 216z"/>
<path style="fill:#cf9eaa; stroke:none;" d="M73.3333 217.667L73.6667 218.333L73.3333 217.667M93.3333 217.667L93.6667 218.333L93.3333 217.667M190 217L191 218L190 217z"/>
<path style="fill:#5c5c5c; stroke:none;" d="M215 217L215 222L216 222L215 217M238 217L239 218L238 217z"/>
<path style="fill:#cf9eaa; stroke:none;" d="M267 217L268 218L267 217z"/>
<path style="fill:#5c5c5c; stroke:none;" d="M290 217L291 218L290 217M346 217L347 218L346 217M374 217L375 218L374 217M399 217L400 218L399 217z"/>
<path style="fill:#cf9eaa; stroke:none;" d="M427 217L428 218L427 217M191 218L192 219L191 218M214 218L215 219L214 218z"/>
<path style="fill:#5c5c5c; stroke:none;" d="M239 218L240 219L239 218M257.333 218.667L257.667 219.333L257.333 218.667M268 218L269 219L268 218M289 218L290 219L289 218z"/>
<path style="fill:#cf9eaa; stroke:none;" d="M347 218L348 219L347 218z"/>
<path style="fill:#5c5c5c; stroke:none;" d="M373 218L374 219L373 218z"/>
<path style="fill:#cf9eaa; stroke:none;" d="M400 218L401 219L400 218M426 218L427 219L426 218M192 219L193 220L192 219z"/>
<path style="fill:#5c5c5c; stroke:none;" d="M212 219L213 220L212 219M240 219L241 220L240 219z"/>
<path style="fill:#cf9eaa; stroke:none;" d="M269 219L270 220L269 219z"/>
<path style="fill:#5c5c5c; stroke:none;" d="M288 219L289 220L288 219M349 219L350 220L349 219M371 219L372 220L371 219z"/>
<path style="fill:#cf9eaa; stroke:none;" d="M372 219L373 220L372 219z"/>
<path style="fill:#5c5c5c; stroke:none;" d="M402 219L403 220L402 219M424 219L425 220L424 219z"/>
<path style="fill:#cf9eaa; stroke:none;" d="M72 220L73 221L72 220M92 220L93 221L92 220z"/>
<path style="fill:#5c5c5c; stroke:none;" d="M194 220L195 221L194 220M210 220L211 221L210 220z"/>
<path style="fill:#cf9eaa; stroke:none;" d="M211 220L212 221L211 220z"/>
<path style="fill:#5c5c5c; stroke:none;" d="M241 220L242 221L241 220M255 220L256 221L255 220M271 220L272 221L271 220M286 220L287 221L286 220z"/>
<path style="fill:#cf9eaa; stroke:none;" d="M287 220L288 221L287 220M350 220L351 221L350 220z"/>
<path style="fill:#5c5c5c; stroke:none;" d="M351 220L352 221L351 220M369 220L370 221L369 220z"/>
<path style="fill:#cf9eaa; stroke:none;" d="M370 220L371 221L370 220M404 220L405 221L404 220z"/>
<path style="fill:#5c5c5c; stroke:none;" d="M405 220L406 221L405 220M422 220L423 221L422 220z"/>
<path style="fill:#cf9eaa; stroke:none;" d="M423 220L424 221L423 220M84 221L84 224L85 224L84 221M196 221L197 222L196 221z"/>
<path style="fill:#5c5c5c; stroke:none;" d="M197 221L198 222L197 221M207.667 221.333L208.333 221.667L207.667 221.333z"/>
<path style="fill:#cf9eaa; stroke:none;" d="M209 221L210 222L209 221z"/>
<path style="fill:#5c5c5c; stroke:none;" d="M243 221L244 222L243 221M252 221L253 222L252 221z"/>
<path style="fill:#cf9eaa; stroke:none;" d="M253 221L254 222L253 221z"/>
<path style="fill:#5c5c5c; stroke:none;" d="M273.667 221.333L274.333 221.667L273.667 221.333M283.667 221.333L284.333 221.667L283.667 221.333z"/>
<path style="fill:#cf9eaa; stroke:none;" d="M353 221L354 222L353 221z"/>
<path style="fill:#5c5c5c; stroke:none;" d="M354.667 221.333L355.333 221.667L354.667 221.333M365.667 221.333L366.333 221.667L365.667 221.333z"/>
<path style="fill:#cf9eaa; stroke:none;" d="M367 221L368 222L367 221M407 221L408 222L407 221z"/>
<path style="fill:#5c5c5c; stroke:none;" d="M408 221L409 222L408 221M419 221L420 222L419 221z"/>
<path style="fill:#cf9eaa; stroke:none;" d="M420 221L421 222L420 221M68 222L68 226L69 226L68 222M199 222L199 223L205 223L199 222M246 222L246 223L251 223L246 222M277 222L277 223L281 223L277 222M358 222L358 223L363 223L358 222M412 222L412 223L416 223L412 222M71 223L72 224L71 223M91 223L92 224L91 223M70.3333 225.667L70.6667 226.333L70.3333 225.667M90.3333 225.667L90.6667 226.333L90.3333 225.667M83.3333 226.667L83.6667 227.333L83.3333 226.667M69 228L70 229L69 228M89 228L90 229L89 228M67 229L67 233L68 233L67 229M82 231L82 234L83 234L82 231M88 231L89 232L88 231M87.3333 233.667L87.6667 234.333L87.3333 233.667M81.3333 236.667L81.6667 237.333L81.3333 236.667M86 236L87 237L86 236M85.3333 238.667L85.6667 239.333L85.3333 238.667M80 241L81 242L80 241M84.3333 241.667L84.6667 242.333L84.3333 241.667M189 243L189 244L192 245L189 243M212 243L211 245L212 243z"/>
<path style="fill:#dc234f; stroke:none;" d="M213 243L212 246L215 246L213 243z"/>
<path style="fill:#cf9eaa; stroke:none;" d="M214 243L215 244L214 243M257 243L258 244L257 243z"/>
<path style="fill:#dc234f; stroke:none;" d="M257 246L261 245L257 246z"/>
<path style="fill:#cf9eaa; stroke:none;" d="M260 243L261 244L260 243M375 243L375 244L378 245L375 243M79 244L79 247L80 247L79 244M83 244L84 245L83 244z"/>
<path style="fill:#dc234f; stroke:none;" d="M189 244L189 256C189 258.58 188.673 261.473 189.318 263.995C194.519 284.35 220.7 251.677 198.005 251.212C195.731 251.166 193.982 252.048 192 253L191 244L189 244M375 244L375 270C377.059 268.665 382.815 242.245 389.258 258.044C390.941 262.172 388.137 267.187 392 270C393.411 258.835 392.047 247.89 378 253L377 244L375 244z"/>
<path style="fill:#cf9eaa; stroke:none;" d="M188 245L188 263L189 263L188 245M260 245L261 246L260 245M374 245L374 269L375 269L374 245M82.3333 246.667L82.6667 247.333L82.3333 246.667M213 246L214 247L213 246M258.667 246.333L259.333 246.667L258.667 246.333M245 247L246 248L245 247z"/>
<path style="fill:#dc234f; stroke:none;" d="M246 247L241 252L241 253L245 254C245 261.218 243.827 269.302 253 270C249.111 264.113 248 261.289 248 254L253 253L253 252L248 251L246 247z"/>
<path style="fill:#cf9eaa; stroke:none;" d="M247 247L248 248L247 247M441 247L440 251L441 251L442 248L443 251L444 251L443 247L441 247z"/>
<path style="fill:#dc234f; stroke:none;" d="M441 248L437 252L437 253L441 254C441 261.333 439.672 269.294 449 270C444.796 264.042 443.005 261.817 443 254L449 253L449 252L441 248z"/>
<path style="fill:#cf9eaa; stroke:none;" d="M78.3333 249.667L78.6667 250.333L78.3333 249.667M81 249L82 250L81 249M364 249L364 250L368 250L364 249z"/>
<path style="fill:#dc234f; stroke:none;" d="M354 266L354 267C344.714 276.102 363.507 281.872 369 274C366.982 274.27 365.008 274.743 362.995 275.025C360.783 275.336 350.975 273.721 355.466 269.768C357.584 267.904 361.429 268.991 363.941 267.678C369.691 264.675 369.236 255.887 364 253L364 252L371 249C362.684 250.057 344.104 253.852 354 266z"/>
<path style="fill:#cf9eaa; stroke:none;" d="M361 250L362 251L361 250M80 251L81 252L80 251M130 251L131 252L130 251z"/>
<path style="fill:#dc234f; stroke:none;" d="M126 278L128 278L128 268C130.005 268.965 131.731 269.765 134.005 269.877C158.805 271.102 129.704 235.461 126.148 258.004C125.74 260.594 126 263.385 126 266L126 278z"/>
<path style="fill:#cf9eaa; stroke:none;" d="M137.667 251.333L138.333 251.667L137.667 251.333M152 251L153 252L152 251z"/>
<path style="fill:#dc234f; stroke:none;" d="M149 270C156.682 265.019 147.42 253.672 161 254C151.169 241.088 149 264.703 149 270z"/>
<path style="fill:#cf9eaa; stroke:none;" d="M158 251L159 252L158 251M170 251L171 252L170 251z"/>
<path style="fill:#dc234f; stroke:none;" d="M171.015 251.576C159.549 254.811 165.124 272.85 176.985 269.566C188.135 266.478 182.83 248.243 171.015 251.576z"/>
<path style="fill:#cf9eaa; stroke:none;" d="M177 251L178 252L177 251M194 251L195 252L194 251M201 251L202 252L201 251M212 251L213 252L212 251z"/>
<path style="fill:#dc234f; stroke:none;" d="M213 251L212 270L215 270L213 251z"/>
<path style="fill:#cf9eaa; stroke:none;" d="M214 251L215 252L214 251M225.667 251.333L226.333 251.667L225.667 251.333z"/>
<path style="fill:#dc234f; stroke:none;" d="M227.005 251.576C214.854 254.95 220.966 272.894 232.985 269.566C244.141 266.476 238.317 248.435 227.005 251.576z"/>
<path style="fill:#cf9eaa; stroke:none;" d="M233 251L234 252L233 251M241 251L242 252L241 251M252 251L253 252L252 251z"/>
<path style="fill:#dc234f; stroke:none;" d="M258 251L258 270L260 270L260 251L258 251z"/>
<path style="fill:#cf9eaa; stroke:none;" d="M271 251L272 252L271 251z"/>
<path style="fill:#dc234f; stroke:none;" d="M282 266C278.78 266.849 275.213 268.534 272.145 266.382C267.662 263.238 268.017 255.224 274.019 254.016C276.592 253.498 279.589 255.265 282 256C276.853 246.191 264.434 252.994 266.229 262.996C267.598 270.62 278.195 272.513 282 266z"/>
<path style="fill:#cf9eaa; stroke:none;" d="M278 251L279 252L278 251z"/>
<path style="fill:#dc234f; stroke:none;" d="M306 251L315 278L316 278L324 251L323 251L316 267L315 267L308 251L306 251z"/>
<path style="fill:#cf9eaa; stroke:none;" d="M308 251L309 252L308 251M322 251L323 252L322 251M324 251L325 252L324 251M333 251L334 252L333 251z"/>
<path style="fill:#dc234f; stroke:none;" d="M334.015 251.746C322.172 256.266 330.003 274.484 341.895 269.142C352.307 264.464 344.768 247.642 334.015 251.746z"/>
<path style="fill:#cf9eaa; stroke:none;" d="M340.667 251.333L341.333 251.667L340.667 251.333M356 251L357 252L356 251M366 251L366 252L370 252L366 251M381 251L382 252L381 251M387.667 251.333L388.333 251.667L387.667 251.333M399 251L400 252L399 251z"/>
<path style="fill:#dc234f; stroke:none;" d="M400 251C399.179 253.595 398.523 256.262 398.326 259C396.706 281.585 429.939 263.134 414 251C414.008 254.727 414.929 259.469 413.477 262.981C411.338 268.154 405.012 268.938 402.179 263.891C400.024 260.052 401.676 255.101 402 251L400 251z"/>
<path style="fill:#cf9eaa; stroke:none;" d="M413 251L413 254L414 254L413 251M427 251L428 252L427 251z"/>
<path style="fill:#dc234f; stroke:none;" d="M424 270L426 270C426 261.393 425.162 253.496 436 254C424.376 243.119 424 263.23 424 270z"/>
<path style="fill:#cf9eaa; stroke:none;" d="M433 251L434 252L433 251M437 251L438 252L437 251M448 251L449 252L448 251M128 252L129 253L128 252M179 252L180 253L179 252M203 252L204 253L203 252M235 252L236 253L235 252M253 252L254 253L253 252M257 252L257 270L258 270L257 252M260 252L260 270L261 270L260 252M269 252L270 253L269 252M280 252L281 253L280 252M305 252L306 253L305 252M331 252L332 253L331 252M343 252L344 253L343 252M354 252L355 253L354 252M364 252L365 253L364 252M379 252L380 253L379 252M416.333 252.667L416.667 253.333L416.333 252.667M425 252L426 253L425 252M435 252L436 253L435 252M77.3333 253.667L77.6667 254.333L77.3333 253.667M79.3333 253.667L79.6667 254.333L79.3333 253.667M127 253L128 254L127 253M132 253L132 254L136 254L132 253M155.667 253.333L156.333 253.667L155.667 253.333M161 253L162 254L161 253M172 253L172 254L176 254L172 253M195 253L195 254L199 254L195 253M204 253L205 254L204 253M222 253L223 254L222 253M228 253L228 254L232 254L228 253M236 253L237 254L236 253M241 253L242 254L241 253M252 253L253 254L252 253M273 253L273 254L277 254L273 253M281 253L282 254L281 253M330 253L331 254L330 253M335 253L335 254L340 254L335 253M344 253L345 254L344 253M353 253L354 254L353 253M358 253L358 254L362 254L358 253M366 253L367 254L366 253M382 253L382 254L386 254L382 253M429 253L429 254L432 254L429 253M437 253L438 254L437 253M448 253L449 254L448 253M126 254L127 255L126 254M130 254L129 256L130 254z"/>
<path style="fill:#ffffff; stroke:none;" d="M131.318 255.032C125.46 258.84 130.47 271.665 137.721 266.243C143.732 261.749 138.123 250.607 131.318 255.032z"/>
<path style="fill:#cf9eaa; stroke:none;" d="M137 254L138 255L137 254M149 254L150 255L149 254M159.667 254.333L160.333 254.667L159.667 254.333M170 254L171 255L170 254z"/>
<path style="fill:#ffffff; stroke:none;" d="M171.228 254.746C164.88 257.609 168.551 269.86 175.891 267.214C183.403 264.506 179.605 250.968 171.228 254.746z"/>
<path style="fill:#cf9eaa; stroke:none;" d="M177 254L178 255L177 254M193 254L192 256L193 254z"/>
<path style="fill:#ffffff; stroke:none;" d="M194.318 255.029C188.54 258.833 193.86 271.206 200.772 266.242C207.15 261.662 201.308 250.426 194.318 255.029z"/>
<path style="fill:#cf9eaa; stroke:none;" d="M205 254L206 255L205 254z"/>
<path style="fill:#ffffff; stroke:none;" d="M226.279 255.029C219.796 259.068 225.685 270.591 232.772 266.528C239.827 262.482 233.58 250.479 226.279 255.029z"/>
<path style="fill:#cf9eaa; stroke:none;" d="M233 254L234 255L233 254M237 254L238 255L237 254M271 254L272 255L271 254M282.333 254.667L282.667 255.333L282.333 254.667M321.333 254.667L321.667 255.333L321.333 254.667M324.333 254.667L324.667 255.333L324.333 254.667M329 254L330 255L329 254z"/>
<path style="fill:#ffffff; stroke:none;" d="M334.228 255.029C327.906 258.843 332.918 270.213 339.891 266.777C347.604 262.976 341.904 250.397 334.228 255.029z"/>
<path style="fill:#cf9eaa; stroke:none;" d="M345 254L346 255L345 254M352 254L353 255L352 254M356 254L355 256L356 254z"/>
<path style="fill:#ffffff; stroke:none;" d="M357.228 255.032C351.117 258.645 356.503 268.772 362.721 264.968C368.552 261.4 363.521 251.313 357.228 255.032z"/>
<path style="fill:#cf9eaa; stroke:none;" d="M363 254L364 255L363 254M387 254L388 255L387 254M391 254L392 255L391 254M398 254L398 258L399 258L398 254M434.667 254.333L435.333 254.667L434.667 254.333M440 254L440 264L441 264L440 254M443 254L443 264L444 264L443 254M78 255L79 256L78 255M142 255L143 256L142 255M152 255L153 256L152 255M165 255L166 256L165 255M182 255L183 256L182 255M234 255L235 256L234 255M266 255L267 256L266 255M279 255L280 256L279 255M306.333 255.667L306.667 256.333L306.333 255.667M309.333 255.667L309.667 256.333L309.333 255.667M332 255L333 256L332 255M342 255L343 256L342 255M364 255L365 256L364 255M388 255L389 256L388 255M401 255L401 258L402 258L401 255M76 256L76 259L78 258L78 257L76 256M139 256L140 257L139 256M168 256L169 257L168 256M179 256L180 257L179 256M206 256L207 257L206 256M238 256L239 257L238 256M269 256L270 257L269 256M280.667 256.333L281.333 256.667L280.667 256.333M328 256L329 257L328 256M346.333 256.667L346.667 257.333L346.333 256.667M351 256L351 259L352 259L351 256M392 256L393 257L392 256M423 256L423 270L424 270L423 256M426 256L426 270L427 270L426 256M125 257L125 277L126 277L125 257M143.333 257.667L143.667 258.333L143.333 257.667M164 257L164 260L165 260L164 257M203 257L204 258L203 257M220 257L221 258L220 257M223.333 257.667L223.667 258.333L223.333 257.667M331 257L332 258L331 257M343 257L344 258L343 257M354 257L355 258L354 257M365.333 257.667L365.667 258.333L365.333 257.667M368 257L368 263L369 263L368 257M389 257L390 258L389 257M128 258L128 265L129 265L128 258M140 258L141 259L140 258M148 258L148 269L149 269L148 258M167 258L167 263L168 263L167 258M183 258L183 263L184 263L183 258M265 258L265 263L266 263L265 258M310 258L311 259L310 258M320 258L321 259L320 258M323 258L324 259L323 258M417 258L417 263L418 263L417 258M180 259L180 263L181 263L180 259M239 259L239 262L240 262L239 259M307 259L308 260L307 259M414.333 259.667L414.667 260.333L414.333 259.667M236 260L237 261L236 260M268 260L269 261L268 260M319 260L320 261L319 260M164 261L164 264L165 264L164 261M308 261L309 262L308 261M311 261L312 262L311 261M322 261L323 262L322 261M351.333 261.667L351.667 262.333L351.333 261.667M365.333 261.667L365.667 262.333L365.333 261.667M140.333 262.667L140.667 263.333L140.333 262.667M223.333 262.667L223.667 263.333L223.333 262.667M318 262L319 263L318 262M354 262L355 263L354 262M401.333 262.667L401.667 263.333L401.333 262.667M143.333 263.667L143.667 264.333L143.333 263.667M203 263L204 264L203 263M220.333 263.667L220.667 264.333L220.333 263.667M309 263L310 264L309 263M321 263L322 264L321 263M343 263L344 264L343 263M398 263L399 264L398 263M179 264L180 265L179 264M206 264L207 265L206 264M235 264L236 265L235 264M269 264L270 265L269 264M313 264L314 265L313 264M317 264L318 265L317 264M320 264L321 265L320 264M328 264L329 265L328 264M346 264L347 265L346 264M355 264L356 265L355 264M364 264L365 265L364 264M413 264L414 265L413 264M165 265L166 266L165 265M182 265L183 266L182 265M192 265L193 266L192 265M202 265L203 266L202 265M224 265L225 266L224 265M238 265L239 266L238 265M248 265L249 266L248 265M266 265L267 266L266 265M281 265L282 266L281 265M310 265L311 266L310 265M332 265L333 266L332 265M342 265L343 266L342 265M352 265L353 266L352 265M356 265L357 266L356 265M363 265L364 266L363 265M402 265L403 266L402 265M416 265L417 266L416 265M142 266L143 267L142 266M193 266L194 267L193 266M201 266L202 267L201 266M205 266L206 267L205 266M221 266L222 267L221 266M225 266L226 267L225 266M233 266L234 267L233 266M245 266L246 267L245 266M271 266L272 267L271 266M279 266L280 267L279 266M282.333 266.667L282.667 267.333L282.333 266.667M311 266L312 267L311 266M319 266L320 267L319 266M329 266L330 267L329 266M333 266L334 267L333 266M341 266L342 267L341 266M345 266L346 267L345 266M353 266L354 267L353 266M359.667 266.333L360.333 266.667L359.667 266.333M366 266L367 267L366 266M389.333 266.667L389.667 267.333L389.333 266.667M392 266L392 269L393 269L392 266M399 266L400 267L399 266M403 266L404 267L403 266M444 266L445 267L444 266M131.667 267.333L132.333 267.667L131.667 267.333M136 267L137 268L136 267M141 267L142 268L141 267M166 267L167 268L166 267M171 267L172 268L171 267M176 267L177 268L176 267M181 267L182 268L181 267M190 267L191 268L190 267M195 267L196 268L195 267M199 267L200 268L199 267M204 267L205 268L204 267M222 267L223 268L222 267M227 267L228 268L227 267M231.667 267.333L232.333 267.667L231.667 267.333M250 267L251 268L250 267M272.667 267.333L273.333 267.667L272.667 267.333M277 267L278 268L277 267M318 267L319 268L318 267M335 267L336 268L335 267M339 267L340 268L339 267M365 267L366 268L365 267M400 267L401 268L400 267M405 267L406 268L405 267M409.667 267.333L410.333 267.667L409.667 267.333M441 267L442 268L441 267M446 267L447 268L446 267M128 268L128 277L129 277L128 268M140 268L141 269L140 268M167 268L168 269L167 268M180 268L181 269L180 268M191 268L192 269L191 268M203 268L204 269L203 268M223 268L224 269L223 268M246 268L247 269L246 268M253.333 268.667L253.667 269.333L253.333 268.667M268 268L269 269L268 268M331 268L332 269L331 268M343 268L344 269L343 268M351 268L352 269L351 268M355 268L355 269L358 269L355 268M362.667 268.333L363.333 268.667L362.667 268.333M401 268L402 269L401 268M442 268L443 269L442 268M130 269L131 270L130 269M139 269L140 270L139 269M151 269L152 270L151 269M169 269L170 270L169 269M178 269L179 270L178 269M225 269L226 270L225 269M234 269L235 270L234 269M270 269L271 270L270 269M279 269L280 270L279 269M313 269L314 270L313 269M332 269L333 270L332 269M354 269L355 270L354 269M377 269L378 270L377 269M389 269L390 270L389 269M403 269L404 270L403 269M412 269L413 270L412 269M443 269L444 270L443 269M133 270L133 271L137 271L133 270M150 270L151 271L150 270M172 270L172 271L176 271L172 270M196 270L196 271L200 271L196 270M213 270L214 271L213 270M228 270L228 271L232 271L228 270M251.667 270.333L252.333 270.667L251.667 270.333M258 270L259 271L258 270M273 270L273 271L277 271L273 270M335 270L335 271L339 271L335 270M350 270L350 274L351 274L350 270M353 270L353 273L354 273L353 270M376 270L377 271L376 270M390 270L391 271L390 270M406 270L406 271L410 271L406 270M446.667 270.333L447.333 270.667L446.667 270.333M367.667 273.333L368.333 273.667L367.667 273.333M355 274L356 275L355 274M365 274L366 275L365 274M369 274L370 275L369 274M359 275L359 276L362 276L359 275M353 276L354 277L353 276M367 276L368 277L367 276M314 277L315 278L314 277M316 277L317 278L316 277M355.667 277.333L356.333 277.667L355.667 277.333M363.667 277.333L364.333 277.667L363.667 277.333z"/>
</svg>
